<?xml version="1.0" encoding="UTF-8" standalone="no"?>
<!DOCTYPE svg PUBLIC "-//W3C//DTD SVG 1.1//EN"
 "http://www.w3.org/Graphics/SVG/1.1/DTD/svg11.dtd">
<!-- Generated by graphviz version 2.43.0 (0)
 -->
<!-- Title: snakemake_dag Pages: 1 -->
<svg width="342pt" height="548pt"
 viewBox="0.00 0.00 342.00 548.00" xmlns="http://www.w3.org/2000/svg" xmlns:xlink="http://www.w3.org/1999/xlink">
<g id="graph0" class="graph" transform="scale(1 1) rotate(0) translate(4 544)">
<title>snakemake_dag</title>
<polygon fill="white" stroke="transparent" points="-4,4 -4,-544 338,-544 338,4 -4,4"/>
<!-- 0 -->
<g id="node1" class="node">
<title>0</title>
<path fill="none" stroke="#567bd8" stroke-width="2" d="M204,-36C204,-36 168,-36 168,-36 162,-36 156,-30 156,-24 156,-24 156,-12 156,-12 156,-6 162,0 168,0 168,0 204,0 204,0 210,0 216,-6 216,-12 216,-12 216,-24 216,-24 216,-30 210,-36 204,-36"/>
<text text-anchor="middle" x="186" y="-15.5" font-family="sans" font-size="10.00">visualize</text>
</g>
<!-- 1 -->
<g id="node2" class="node">
<title>1</title>
<path fill="none" stroke="#b6d856" stroke-width="2" d="M213,-108C213,-108 159,-108 159,-108 153,-108 147,-102 147,-96 147,-96 147,-84 147,-84 147,-78 153,-72 159,-72 159,-72 213,-72 213,-72 219,-72 225,-78 225,-84 225,-84 225,-96 225,-96 225,-102 219,-108 213,-108"/>
<text text-anchor="middle" x="186" y="-87.5" font-family="sans" font-size="10.00">extract_data</text>
</g>
<!-- 1&#45;&gt;0 -->
<g id="edge1" class="edge">
<title>1&#45;&gt;0</title>
<path fill="none" stroke="grey" stroke-width="2" d="M186,-71.7C186,-63.98 186,-54.71 186,-46.11"/>
<polygon fill="grey" stroke="grey" stroke-width="2" points="189.5,-46.1 186,-36.1 182.5,-46.1 189.5,-46.1"/>
</g>
<!-- 2 -->
<g id="node3" class="node">
<title>2</title>
<path fill="none" stroke="#56d892" stroke-width="2" d="M166.5,-180C166.5,-180 71.5,-180 71.5,-180 65.5,-180 59.5,-174 59.5,-168 59.5,-168 59.5,-156 59.5,-156 59.5,-150 65.5,-144 71.5,-144 71.5,-144 166.5,-144 166.5,-144 172.5,-144 178.5,-150 178.5,-156 178.5,-156 178.5,-168 178.5,-168 178.5,-174 172.5,-180 166.5,-180"/>
<text text-anchor="middle" x="119" y="-159.5" font-family="sans" font-size="10.00">qiime2_export_alpha</text>
</g>
<!-- 2&#45;&gt;1 -->
<g id="edge2" class="edge">
<title>2&#45;&gt;1</title>
<path fill="none" stroke="grey" stroke-width="2" d="M135.56,-143.7C143.68,-135.22 153.59,-124.86 162.47,-115.58"/>
<polygon fill="grey" stroke="grey" stroke-width="2" points="165.24,-117.75 169.63,-108.1 160.19,-112.91 165.24,-117.75"/>
</g>
<!-- 3 -->
<g id="node4" class="node">
<title>3</title>
<path fill="none" stroke="#8fd856" stroke-width="2" d="M255.5,-540C255.5,-540 184.5,-540 184.5,-540 178.5,-540 172.5,-534 172.5,-528 172.5,-528 172.5,-516 172.5,-516 172.5,-510 178.5,-504 184.5,-504 184.5,-504 255.5,-504 255.5,-504 261.5,-504 267.5,-510 267.5,-516 267.5,-516 267.5,-528 267.5,-528 267.5,-534 261.5,-540 255.5,-540"/>
<text text-anchor="middle" x="220" y="-519.5" font-family="sans" font-size="10.00">get_tool_names</text>
</g>
<!-- 3&#45;&gt;2 -->
<g id="edge4" class="edge">
<title>3&#45;&gt;2</title>
<path fill="none" stroke="grey" stroke-width="2" d="M172.42,-506.77C169.24,-505.83 166.07,-504.9 163,-504 107.52,-487.74 81.32,-506.29 38,-468 5.77,-439.52 0,-422.01 0,-379 0,-379 0,-379 0,-305 0,-253.41 46.72,-210.72 81.61,-186.03"/>
<polygon fill="grey" stroke="grey" stroke-width="2" points="83.92,-188.69 90.19,-180.15 79.97,-182.92 83.92,-188.69"/>
</g>
<!-- 4 -->
<g id="node5" class="node">
<title>4</title>
<path fill="none" stroke="#d87d56" stroke-width="2" d="M145,-252C145,-252 105,-252 105,-252 99,-252 93,-246 93,-240 93,-240 93,-228 93,-228 93,-222 99,-216 105,-216 105,-216 145,-216 145,-216 151,-216 157,-222 157,-228 157,-228 157,-240 157,-240 157,-246 151,-252 145,-252"/>
<text text-anchor="middle" x="125" y="-231.5" font-family="sans" font-size="10.00">alpha_div</text>
</g>
<!-- 3&#45;&gt;4 -->
<g id="edge6" class="edge">
<title>3&#45;&gt;4</title>
<path fill="none" stroke="grey" stroke-width="2" d="M172.24,-506.21C124.78,-491.4 58.79,-470.46 57,-468 9.89,-403.14 70.35,-306.01 104.52,-260.39"/>
<polygon fill="grey" stroke="grey" stroke-width="2" points="107.46,-262.3 110.76,-252.23 101.9,-258.04 107.46,-262.3"/>
</g>
<!-- 5 -->
<g id="node6" class="node">
<title>5</title>
<path fill="none" stroke="#56a9d8" stroke-width="2" d="M253,-324C253,-324 223,-324 223,-324 217,-324 211,-318 211,-312 211,-312 211,-300 211,-300 211,-294 217,-288 223,-288 223,-288 253,-288 253,-288 259,-288 265,-294 265,-300 265,-300 265,-312 265,-312 265,-318 259,-324 253,-324"/>
<text text-anchor="middle" x="238" y="-303.5" font-family="sans" font-size="10.00">rarefy</text>
</g>
<!-- 3&#45;&gt;5 -->
<g id="edge9" class="edge">
<title>3&#45;&gt;5</title>
<path fill="none" stroke="grey" stroke-width="2" d="M223.48,-503.7C228.11,-479.67 236.07,-434.74 239,-396 240.21,-380.05 239.15,-376 239,-360 238.92,-351.68 238.77,-342.63 238.62,-334.4"/>
<polygon fill="grey" stroke="grey" stroke-width="2" points="242.11,-334.11 238.41,-324.18 235.11,-334.25 242.11,-334.11"/>
</g>
<!-- 6 -->
<g id="node7" class="node">
<title>6</title>
<path fill="none" stroke="#d8cb56" stroke-width="2" d="M218,-396C218,-396 188,-396 188,-396 182,-396 176,-390 176,-384 176,-384 176,-372 176,-372 176,-366 182,-360 188,-360 188,-360 218,-360 218,-360 224,-360 230,-366 230,-372 230,-372 230,-384 230,-384 230,-390 224,-396 218,-396"/>
<text text-anchor="middle" x="203" y="-375.5" font-family="sans" font-size="10.00">dada2</text>
</g>
<!-- 3&#45;&gt;6 -->
<g id="edge11" class="edge">
<title>3&#45;&gt;6</title>
<path fill="none" stroke="grey" stroke-width="2" d="M217.95,-503.87C215.05,-479.67 209.73,-435.21 206.28,-406.39"/>
<polygon fill="grey" stroke="grey" stroke-width="2" points="209.72,-405.7 205.06,-396.19 202.77,-406.53 209.72,-405.7"/>
</g>
<!-- 7 -->
<g id="node8" class="node">
<title>7</title>
<path fill="none" stroke="#56d0d8" stroke-width="2" d="M142,-468C142,-468 78,-468 78,-468 72,-468 66,-462 66,-456 66,-456 66,-444 66,-444 66,-438 72,-432 78,-432 78,-432 142,-432 142,-432 148,-432 154,-438 154,-444 154,-444 154,-456 154,-456 154,-462 148,-468 142,-468"/>
<text text-anchor="middle" x="110" y="-447.5" font-family="sans" font-size="10.00">qiime2_import</text>
</g>
<!-- 3&#45;&gt;7 -->
<g id="edge14" class="edge">
<title>3&#45;&gt;7</title>
<path fill="none" stroke="grey" stroke-width="2" d="M193.09,-503.88C178.84,-494.81 161.15,-483.55 145.76,-473.76"/>
<polygon fill="grey" stroke="grey" stroke-width="2" points="147.33,-470.61 137.01,-468.19 143.57,-476.51 147.33,-470.61"/>
</g>
<!-- 9 -->
<g id="node10" class="node">
<title>9</title>
<path fill="none" stroke="#68d856" stroke-width="2" d="M176.5,-324C176.5,-324 123.5,-324 123.5,-324 117.5,-324 111.5,-318 111.5,-312 111.5,-312 111.5,-300 111.5,-300 111.5,-294 117.5,-288 123.5,-288 123.5,-288 176.5,-288 176.5,-288 182.5,-288 188.5,-294 188.5,-300 188.5,-300 188.5,-312 188.5,-312 188.5,-318 182.5,-324 176.5,-324"/>
<text text-anchor="middle" x="150" y="-303.5" font-family="sans" font-size="10.00">mafft_raxml</text>
</g>
<!-- 3&#45;&gt;9 -->
<g id="edge15" class="edge">
<title>3&#45;&gt;9</title>
<path fill="none" stroke="grey" stroke-width="2" d="M211.24,-503.64C199.59,-479.89 179.06,-435.7 167,-396 160.84,-375.71 156.45,-352.12 153.68,-334.32"/>
<polygon fill="grey" stroke="grey" stroke-width="2" points="157.13,-333.7 152.2,-324.32 150.2,-334.73 157.13,-333.7"/>
</g>
<!-- 10 -->
<g id="node11" class="node">
<title>10</title>
<path fill="none" stroke="#56d8b9" stroke-width="2" d="M299,-180C299,-180 209,-180 209,-180 203,-180 197,-174 197,-168 197,-168 197,-156 197,-156 197,-150 203,-144 209,-144 209,-144 299,-144 299,-144 305,-144 311,-150 311,-156 311,-156 311,-168 311,-168 311,-174 305,-180 299,-180"/>
<text text-anchor="middle" x="254" y="-159.5" font-family="sans" font-size="10.00">qiime2_export_beta</text>
</g>
<!-- 3&#45;&gt;10 -->
<g id="edge17" class="edge">
<title>3&#45;&gt;10</title>
<path fill="none" stroke="grey" stroke-width="2" d="M247.02,-503.96C280.73,-480.37 334,-434.33 334,-379 334,-379 334,-379 334,-305 334,-259.1 301.88,-214.35 278.34,-187.73"/>
<polygon fill="grey" stroke="grey" stroke-width="2" points="280.68,-185.1 271.36,-180.07 275.51,-189.81 280.68,-185.1"/>
</g>
<!-- 11 -->
<g id="node12" class="node">
<title>11</title>
<path fill="none" stroke="#d8a456" stroke-width="2" d="M266.5,-252C266.5,-252 231.5,-252 231.5,-252 225.5,-252 219.5,-246 219.5,-240 219.5,-240 219.5,-228 219.5,-228 219.5,-222 225.5,-216 231.5,-216 231.5,-216 266.5,-216 266.5,-216 272.5,-216 278.5,-222 278.5,-228 278.5,-228 278.5,-240 278.5,-240 278.5,-246 272.5,-252 266.5,-252"/>
<text text-anchor="middle" x="249" y="-231.5" font-family="sans" font-size="10.00">beta_div</text>
</g>
<!-- 3&#45;&gt;11 -->
<g id="edge19" class="edge">
<title>3&#45;&gt;11</title>
<path fill="none" stroke="grey" stroke-width="2" d="M230.3,-503.88C235.99,-493.76 242.74,-480.51 247,-468 267.99,-406.36 267.97,-388.84 274,-324 275.48,-308.07 277.5,-303.61 274,-288 271.99,-279.01 268.27,-269.75 264.3,-261.53"/>
<polygon fill="grey" stroke="grey" stroke-width="2" points="267.32,-259.73 259.63,-252.44 261.09,-262.94 267.32,-259.73"/>
</g>
<!-- 4&#45;&gt;2 -->
<g id="edge5" class="edge">
<title>4&#45;&gt;2</title>
<path fill="none" stroke="grey" stroke-width="2" d="M123.52,-215.7C122.86,-207.98 122.06,-198.71 121.32,-190.11"/>
<polygon fill="grey" stroke="grey" stroke-width="2" points="124.81,-189.77 120.47,-180.1 117.83,-190.37 124.81,-189.77"/>
</g>
<!-- 5&#45;&gt;4 -->
<g id="edge7" class="edge">
<title>5&#45;&gt;4</title>
<path fill="none" stroke="grey" stroke-width="2" d="M210.93,-288.23C196.06,-279.02 177.41,-267.47 161.29,-257.48"/>
<polygon fill="grey" stroke="grey" stroke-width="2" points="162.97,-254.41 152.63,-252.12 159.29,-260.36 162.97,-254.41"/>
</g>
<!-- 5&#45;&gt;11 -->
<g id="edge20" class="edge">
<title>5&#45;&gt;11</title>
<path fill="none" stroke="grey" stroke-width="2" d="M240.72,-287.7C241.93,-279.98 243.39,-270.71 244.74,-262.11"/>
<polygon fill="grey" stroke="grey" stroke-width="2" points="248.22,-262.53 246.31,-252.1 241.3,-261.44 248.22,-262.53"/>
</g>
<!-- 6&#45;&gt;5 -->
<g id="edge10" class="edge">
<title>6&#45;&gt;5</title>
<path fill="none" stroke="grey" stroke-width="2" d="M211.65,-359.7C215.64,-351.73 220.45,-342.1 224.87,-333.26"/>
<polygon fill="grey" stroke="grey" stroke-width="2" points="228.11,-334.61 229.45,-324.1 221.85,-331.48 228.11,-334.61"/>
</g>
<!-- 6&#45;&gt;9 -->
<g id="edge16" class="edge">
<title>6&#45;&gt;9</title>
<path fill="none" stroke="grey" stroke-width="2" d="M189.9,-359.7C183.61,-351.39 175.95,-341.28 169.04,-332.14"/>
<polygon fill="grey" stroke="grey" stroke-width="2" points="171.78,-329.96 162.95,-324.1 166.2,-334.19 171.78,-329.96"/>
</g>
<!-- 7&#45;&gt;6 -->
<g id="edge12" class="edge">
<title>7&#45;&gt;6</title>
<path fill="none" stroke="grey" stroke-width="2" d="M132.99,-431.7C144.81,-422.8 159.39,-411.82 172.18,-402.2"/>
<polygon fill="grey" stroke="grey" stroke-width="2" points="174.39,-404.91 180.28,-396.1 170.18,-399.32 174.39,-404.91"/>
</g>
<!-- 8 -->
<g id="node9" class="node">
<title>8</title>
<path fill="none" stroke="#56d86b" stroke-width="2" d="M142,-540C142,-540 74,-540 74,-540 68,-540 62,-534 62,-528 62,-528 62,-516 62,-516 62,-510 68,-504 74,-504 74,-504 142,-504 142,-504 148,-504 154,-510 154,-516 154,-516 154,-528 154,-528 154,-534 148,-540 142,-540"/>
<text text-anchor="middle" x="108" y="-519.5" font-family="sans" font-size="10.00">paste_manifest</text>
</g>
<!-- 8&#45;&gt;7 -->
<g id="edge13" class="edge">
<title>8&#45;&gt;7</title>
<path fill="none" stroke="grey" stroke-width="2" d="M108.49,-503.7C108.71,-495.98 108.98,-486.71 109.23,-478.11"/>
<polygon fill="grey" stroke="grey" stroke-width="2" points="112.72,-478.2 109.51,-468.1 105.73,-478 112.72,-478.2"/>
</g>
<!-- 9&#45;&gt;4 -->
<g id="edge8" class="edge">
<title>9&#45;&gt;4</title>
<path fill="none" stroke="grey" stroke-width="2" d="M143.82,-287.7C141,-279.81 137.61,-270.3 134.48,-261.55"/>
<polygon fill="grey" stroke="grey" stroke-width="2" points="137.77,-260.34 131.11,-252.1 131.18,-262.7 137.77,-260.34"/>
</g>
<!-- 9&#45;&gt;11 -->
<g id="edge21" class="edge">
<title>9&#45;&gt;11</title>
<path fill="none" stroke="grey" stroke-width="2" d="M174.22,-287.88C186.92,-278.89 202.66,-267.76 216.42,-258.03"/>
<polygon fill="grey" stroke="grey" stroke-width="2" points="218.54,-260.82 224.69,-252.19 214.5,-255.11 218.54,-260.82"/>
</g>
<!-- 10&#45;&gt;1 -->
<g id="edge3" class="edge">
<title>10&#45;&gt;1</title>
<path fill="none" stroke="grey" stroke-width="2" d="M237.19,-143.7C228.87,-135.14 218.69,-124.66 209.61,-115.3"/>
<polygon fill="grey" stroke="grey" stroke-width="2" points="212.09,-112.84 202.62,-108.1 207.07,-117.72 212.09,-112.84"/>
</g>
<!-- 11&#45;&gt;10 -->
<g id="edge18" class="edge">
<title>11&#45;&gt;10</title>
<path fill="none" stroke="grey" stroke-width="2" d="M250.24,-215.7C250.79,-207.98 251.45,-198.71 252.06,-190.11"/>
<polygon fill="grey" stroke="grey" stroke-width="2" points="255.56,-190.33 252.78,-180.1 248.57,-189.83 255.56,-190.33"/>
</g>
</g>
</svg>
